<?xml version="1.0" encoding="UTF-8" standalone="no"?>
<svg
   version="1.1"
   width="13.078396"
   height="15.999998"
   viewBox="0 0 13.078396 15.999998"
   id="svg1022"
   sodipodi:docname="favicon.svg"
   inkscape:version="1.3.2 (091e20ef0f, 2023-11-25, custom)"
   xmlns:inkscape="http://www.inkscape.org/namespaces/inkscape"
   xmlns:sodipodi="http://sodipodi.sourceforge.net/DTD/sodipodi-0.dtd"
   xmlns="http://www.w3.org/2000/svg"
   xmlns:svg="http://www.w3.org/2000/svg">
  <defs
     id="defs1026" />
  <sodipodi:namedview
     id="namedview1024"
     pagecolor="#505050"
     bordercolor="#ffffff"
     borderopacity="1"
     inkscape:pageshadow="0"
     inkscape:pageopacity="0"
     inkscape:pagecheckerboard="1"
     showgrid="false"
     inkscape:zoom="26"
     inkscape:cx="4.4230769"
     inkscape:cy="4.4423077"
     inkscape:window-width="1600"
     inkscape:window-height="827"
     inkscape:window-x="0"
     inkscape:window-y="0"
     inkscape:window-maximized="1"
     inkscape:current-layer="svg1022"
     inkscape:showpageshadow="0"
     inkscape:deskcolor="#d1d1d1" />
  <g
     id="path2-5-2-6"
     style="fill:#000000"
     transform="translate(-14.866136,-0.85972081)">
    <path
       style="color:#000000;fill:#000000;stroke-linecap:round;-inkscape-stroke:none"
       d="m 21.405232,1.3204871 -6.039196,3.9102435 m 12.078391,0 -6.039195,3.9102435 m 6.039189,3.2692679 -6.039195,3.910244 m -6.039196,-3.910244 6e-6,-7.1795114 m 12.078385,7.1795114 6e-6,-7.1795114 m -6.039201,11.0897554 6e-6,-7.1795119 m 0,-7.820487 6.039195,3.9102435 m -12.078391,0 6.039196,3.9102435 m -6.039202,3.2692679 6.039196,3.910244"
       id="path5" />
    <path
       style="color:#000000;fill:#000000;stroke-linecap:round;-inkscape-stroke:none"
       d="M 21.132812,0.90039063 15.09375,4.8105469 a 0.49999949,0.49999949 0 0 0 -0.01172,0.054687 0.49999949,0.49999949 0 0 0 -0.134765,0.09375 0.49999949,0.49999949 0 0 0 0.0332,0.15625 0.49999949,0.49999949 0 0 0 -0.115235,0.1152343 v 7.1796878 a 0.49999949,0.49999949 0 0 0 0.02149,0.05274 0.49999949,0.49999949 0 0 0 0.07031,0.169922 0.49999949,0.49999949 0 0 0 0.105469,0.152343 0.49999949,0.49999949 0 0 0 0.03125,0.04492 l 6.039062,3.910156 a 0.49999949,0.49999949 0 0 0 0.05078,-0.01172 0.49999949,0.49999949 0 0 0 0.002,0 0.49999949,0.49999949 0 0 0 0.002,0.002 0.49999949,0.49999949 0 0 0 0.166016,0.06836 0.49999949,0.49999949 0 0 0 0.05078,0.02148 0.49999949,0.49999949 0 0 0 0.03711,-0.03711 0.49999949,0.49999949 0 0 0 0.236328,-0.04297 l 6.039063,-3.910155 a 0.49999949,0.49999949 0 0 0 0.21875,-0.410157 0.49999949,0.49999949 0 0 0 0.0098,-0.0098 V 5.2304687 a 0.49999949,0.49999949 0 0 0 -0.0098,-0.037109 0.49999949,0.49999949 0 0 0 -0.002,-0.056641 0.49999949,0.49999949 0 0 0 -0.04102,-0.1035156 0.49999949,0.49999949 0 0 0 -0.0039,-0.011719 0.49999949,0.49999949 0 0 0 -0.01953,-0.048828 0.49999949,0.49999949 0 0 0 -0.0039,-0.00586 0.49999949,0.49999949 0 0 0 -0.002,-0.00781 0.49999949,0.49999949 0 0 0 -0.0039,0 A 0.49999949,0.49999949 0 0 0 27.71681,4.8105486 L 27.695312,4.796875 21.677734,0.90039063 A 0.49999949,0.49999949 0 0 0 21.40625,0.95898438 0.49999949,0.49999949 0 0 0 21.132812,0.90039063 Z M 21.40625,1.9160156 26.523437,5.2304687 21.40625,8.5449219 16.287109,5.2304687 Z m -5.541016,4.234375 5.039063,3.2617188 v 5.9882816 l -5.039063,-3.263672 z m 11.080078,0 v 5.9863284 l -5.041015,3.263672 V 9.4140625 Z"
       id="path6" />
  </g>
  <path
     style="fill:#cc0000;stroke:#000000;stroke-width:1px;stroke-linecap:butt;stroke-linejoin:miter;stroke-opacity:1"
     d="M 6.038161,14.54067 0.999098,11.276998 V 5.2906698 l 5.039063,3.2617188 z"
     id="path7" />
  <path
     style="fill:#003399;stroke:#000000;stroke-width:1px;stroke-linecap:butt;stroke-linejoin:miter;stroke-opacity:1"
     d="m 7.038161,14.542623 5.039063,-3.263672 V 5.2926229 L 7.038161,8.5543417 Z"
     id="path7-1" />
  <path
     style="fill:#00cc00;stroke:#000000;stroke-width:1px;stroke-linecap:butt;stroke-linejoin:miter;stroke-opacity:1"
     d="M 6.540114,7.6852011 1.420973,4.3707479 6.540114,1.0562948 11.657301,4.3707479 6.540114,7.6852011"
     id="path8" />
</svg>
